<svg id="Capa_1" enable-background="new 0 0 511.971 511.971" height="512" viewBox="0 0 511.971 511.971" width="512" xmlns="http://www.w3.org/2000/svg"><path d="m34.984 482.334c-13.151 0-24.684-6.936-30.85-18.552-6.052-11.4-5.418-25.051 1.63-35.721l153.36-265.628c2.761-4.782 8.876-6.423 13.66-3.66 4.783 2.762 6.422 8.877 3.66 13.66l-153.522 265.91c-.118.206-.244.407-.378.604-3.141 4.643-3.419 10.421-.745 15.459 1.266 2.384 5.083 7.929 13.184 7.929l441.999-.057h.014c5.378 0 10.205-2.812 12.926-7.522 2.734-4.734 2.729-10.171-.014-14.915l-220.823-382.477c-.023-.041-.047-.081-.069-.123-2.638-4.721-7.484-7.563-12.966-7.604-2.584-.015-9.087.665-12.992 7.419l-21.613 37.436c-2.761 4.783-8.875 6.421-13.66 3.66-4.783-2.762-6.422-8.877-3.66-13.66l21.616-37.441c6.361-10.999 17.751-17.51 30.458-17.412 12.742.094 24.041 6.74 30.24 17.783l220.786 382.412c6.322 10.934 6.329 23.991.016 34.924-6.337 10.972-17.637 17.52-30.233 17.52-.012 0-.022 0-.033 0zm398.766-50h-20.001c-5.522 0-10-4.478-10-10s4.478-10 10-10h2.681l-160.447-277.903-160.448 277.903h228.214c5.522 0 10 4.478 10 10s-4.478 10-10 10h-245.534c-3.572 0-6.874-1.906-8.66-5s-1.786-6.906 0-10l177.768-307.902c1.786-3.094 5.088-5 8.66-5s6.874 1.906 8.66 5l177.767 307.902c1.786 3.094 1.786 6.906 0 10s-5.087 5-8.66 5z"/><path d="m190.275 138.469c-1.683 0-3.388-.425-4.952-1.319-4.796-2.74-6.462-8.849-3.722-13.644 2.74-4.797 8.852-6.468 13.646-3.725 4.796 2.74 6.464 8.845 3.724 13.64l-.004.007c-1.847 3.23-5.222 5.041-8.692 5.041z"/><path d="m368.753 432.334c-5.522 0-10.004-4.478-10.004-10s4.474-10 9.996-10h.008c5.522 0 10 4.478 10 10s-4.477 10-10 10z"/></svg>